<?xml version="1.0" standalone="no"?>
<!DOCTYPE svg PUBLIC "-//W3C//DTD SVG 20010904//EN"
 "http://www.w3.org/TR/2001/REC-SVG-20010904/DTD/svg10.dtd">
<svg version="1.0" xmlns="http://www.w3.org/2000/svg"
 width="736.000000pt" height="736.000000pt" viewBox="0 0 736.000000 736.000000"
 preserveAspectRatio="xMidYMid meet">

<g transform="translate(0.000000,736.000000) scale(0.100000,-0.100000)"
fill="#000000" stroke="none">
<path d="M4497 4626 c-3 -35 -20 -83 -46 -134 -22 -44 -37 -83 -33 -88 4 -4 2
-4 -4 -1 -7 4 -19 -4 -28 -17 -8 -13 -66 -75 -128 -138 -156 -157 -229 -286
-233 -418 -1 -36 -1 -49 2 -28 2 20 10 39 18 42 15 5 45 -18 45 -35 0 -6 4 -8
9 -4 6 3 15 -3 20 -14 8 -15 7 -23 -3 -34 -11 -11 -12 -17 -3 -26 8 -8 5 -11
-13 -11 -69 -1 -79 -3 -75 -10 3 -5 -1 -11 -7 -14 -7 -3 -2 -2 12 2 14 4 44 7
67 7 33 0 47 -6 66 -29 30 -34 40 -77 27 -111 -5 -14 -7 -25 -5 -25 15 0 24
55 16 93 -6 23 -8 43 -6 46 3 2 8 -10 11 -27 4 -17 13 -37 22 -44 13 -11 15
-10 9 5 -9 22 -15 44 -10 35 3 -5 11 -8 18 -8 8 0 19 -9 25 -20 9 -17 8 -20
-7 -20 -14 0 -15 -2 -5 -9 8 -4 12 -17 11 -27 -2 -11 3 -30 10 -43 8 -15 9
-21 2 -16 -6 3 -11 3 -10 -2 4 -21 -2 -25 -13 -10 -11 15 -13 13 -13 -18 l0
-36 48 50 c28 30 45 56 41 62 -4 7 -3 9 4 5 12 -7 84 98 130 189 32 64 82 214
82 245 0 10 5 22 12 26 17 11 3 -157 -22 -243 -22 -79 -70 -176 -131 -266 -22
-32 -37 -63 -33 -69 4 -7 3 -8 -4 -4 -14 8 -37 -36 -30 -56 8 -20 55 -20 84
-1 20 12 22 18 12 25 -9 7 -7 8 6 4 24 -8 70 38 132 135 60 92 91 164 115 266
32 133 22 339 -21 478 -48 153 -87 248 -141 348 l-26 48 -6 -55z m190 -478
c-3 -7 -5 -2 -5 12 0 14 2 19 5 13 2 -7 2 -19 0 -25z m-612 -266 c-3 -3 -5 0
-5 7 0 7 -4 9 -10 6 -12 -7 -12 -3 -3 21 6 15 7 14 15 -6 5 -13 6 -25 3 -28z
m-15 -6 c0 -2 -7 -9 -15 -16 -13 -11 -14 -10 -9 4 5 14 24 23 24 12z m97 -131
c0 -16 -22 -21 -32 -6 -3 5 3 12 12 14 10 3 18 5 19 6 0 0 1 -6 1 -14z m28
-45 c3 -5 -1 -10 -10 -10 -9 0 -13 5 -10 10 3 6 8 10 10 10 2 0 7 -4 10 -10z
m329 -188 c3 -5 -1 -9 -9 -9 -8 0 -12 4 -9 9 3 4 7 8 9 8 2 0 6 -4 9 -8z m-70
-84 c-3 -5 -13 -7 -22 -6 -13 2 -17 -4 -16 -24 1 -23 -3 -27 -20 -24 -11 2
-22 9 -24 17 -4 20 49 69 55 52 7 -20 23 -15 17 5 -5 14 -4 14 4 2 6 -8 8 -18
6 -22z"/>
<path d="M4380 3400 c0 -5 5 -10 10 -10 6 0 10 5 10 10 0 6 -4 10 -10 10 -5 0
-10 -4 -10 -10z"/>
<path d="M2145 4664 c-11 -2 -56 -6 -100 -10 l-80 -6 45 -14 c25 -8 50 -12 56
-10 6 2 17 0 25 -6 11 -8 9 -9 -6 -4 -16 5 -15 2 4 -12 14 -9 42 -31 63 -49
24 -19 45 -30 54 -26 15 5 15 7 0 15 -9 5 -19 7 -24 5 -4 -2 -22 12 -41 30
-33 32 -33 33 -10 33 34 0 145 -55 199 -98 91 -73 143 -144 194 -262 43 -100
42 -97 23 -81 -9 7 -17 20 -17 27 0 8 -4 14 -10 14 -5 0 -10 -4 -10 -10 0 -5
-4 -10 -10 -10 -5 0 -10 7 -10 16 0 8 -5 12 -10 9 -6 -3 -13 1 -16 10 -4 9
-13 14 -20 11 -8 -3 -11 0 -8 8 3 8 -7 26 -21 40 -16 16 -24 33 -21 42 4 9 2
12 -5 8 -6 -4 -15 0 -20 7 -7 12 -9 12 -9 0 0 -11 -4 -9 -15 5 -20 26 -19 40
2 23 15 -13 15 -12 2 8 -8 14 -16 18 -20 12 -5 -8 -9 -8 -13 0 -4 6 -5 11 -1
11 3 0 1 9 -5 21 -7 11 -14 18 -17 15 -9 -9 -53 47 -46 58 3 6 3 8 -2 4 -4 -4
-15 -2 -24 5 -14 11 -15 10 -1 -8 8 -11 17 -22 20 -25 3 -3 19 -23 35 -45 103
-137 176 -281 219 -433 186 -646 626 -1022 1196 -1022 86 0 111 4 137 20 35
21 66 64 38 54 -8 -4 -15 -11 -15 -18 0 -8 -2 -8 -8 0 -4 6 -42 19 -84 28 -53
12 -78 22 -78 32 0 8 -8 14 -17 14 -15 0 -16 2 -3 10 13 9 13 10 -1 10 -13 0
-15 13 -12 80 3 66 1 80 -12 80 -11 0 -15 11 -15 40 0 22 4 40 8 40 5 0 9 54
9 120 0 98 -3 120 -15 120 -12 0 -13 -14 -7 -80 5 -56 4 -80 -4 -80 -8 0 -11
46 -11 145 0 106 -3 144 -12 143 -16 -4 -21 64 -6 73 7 4 17 4 24 -1 25 -21 6
50 -22 82 -77 88 -97 107 -107 101 -6 -3 -7 -1 -4 4 7 11 -70 82 -141 128 -23
15 -41 30 -39 32 7 6 79 -28 133 -62 34 -22 60 -32 73 -28 12 3 21 1 21 -6 0
-5 -8 -8 -17 -5 -19 6 -20 7 51 -48 16 -13 35 -28 42 -35 9 -10 15 -9 26 4 11
15 11 16 -6 10 -13 -5 -17 -3 -13 7 4 10 1 13 -9 9 -7 -3 -14 0 -14 6 0 6 5
11 12 11 6 0 4 8 -6 19 -10 11 -15 24 -12 29 3 6 -1 13 -10 16 -23 9 -31 7
-15 -3 14 -9 7 -31 -10 -31 -6 0 -8 4 -5 9 7 11 -18 33 -27 24 -4 -3 -7 -1 -7
5 0 7 5 12 10 12 15 0 12 47 -2 53 -10 4 -10 7 -1 14 6 5 13 30 14 56 2 26 9
53 16 59 18 15 16 31 -3 24 -12 -4 -15 -2 -10 9 3 8 0 16 -7 17 -7 0 -16 2
-22 3 -5 2 -15 3 -22 4 -18 2 -43 30 -43 49 0 12 4 9 13 -8 10 -19 20 -25 45
-24 18 1 30 -1 27 -5 -2 -4 2 -8 10 -8 23 0 19 4 -40 42 -238 152 -538 244
-913 280 -136 13 -369 18 -427 9z m159 -250 c3 -8 2 -12 -4 -9 -6 3 -10 10
-10 16 0 14 7 11 14 -7z m1101 -4 c3 -5 1 -10 -4 -10 -6 0 -11 5 -11 10 0 6 2
10 4 10 3 0 8 -4 11 -10z m79 -45 c16 -12 17 -15 4 -15 -8 0 -21 7 -28 15 -16
19 -1 19 24 0z m-1096 -71 c-4 -3 -12 5 -18 18 -12 22 -12 22 6 6 10 -10 15
-20 12 -24z m1037 -170 c-9 -9 -19 -13 -23 -10 -3 4 0 11 8 16 24 15 33 11 15
-6z m30 -123 c3 -5 2 -12 -3 -15 -5 -3 -9 1 -9 9 0 17 3 19 12 6z m115 -127
c0 -3 -7 -1 -15 6 -18 15 -20 -1 -3 -18 7 -7 16 -8 23 -2 7 6 15 2 24 -13 9
-15 10 -18 1 -10 -7 6 -18 9 -24 7 -19 -7 -58 40 -50 60 6 16 8 15 25 -3 11
-11 19 -23 19 -27z"/>
<path d="M3550 4270 c-8 -5 -11 -12 -7 -16 4 -4 13 -2 19 4 15 15 7 24 -12 12z"/>
<path d="M3635 4260 c10 -11 20 -20 23 -20 3 0 -3 9 -13 20 -10 11 -20 20 -23
20 -3 0 3 -9 13 -20z"/>
<path d="M3719 4187 c6 -8 7 -18 3 -22 -4 -5 -1 -5 6 -1 10 6 10 11 1 22 -6 8
-14 14 -16 14 -3 0 0 -6 6 -13z"/>
<path d="M3817 4079 c7 -7 15 -10 18 -7 3 3 -2 9 -12 12 -14 6 -15 5 -6 -5z"/>
<path d="M3840 4033 c0 -13 38 -52 45 -45 4 4 5 0 4 -8 -2 -8 0 -16 5 -17 4
-1 19 -24 31 -50 18 -39 24 -45 30 -30 9 21 -8 58 -47 99 -14 15 -23 28 -20
28 3 0 1 5 -6 12 -12 12 -42 20 -42 11z m35 -13 c3 -5 1 -10 -4 -10 -6 0 -11
5 -11 10 0 6 2 10 4 10 3 0 8 -4 11 -10z"/>
<path d="M3650 3915 c35 -36 47 -44 34 -23 -16 26 -48 58 -58 58 -5 0 5 -16
24 -35z"/>
<path d="M3700 3870 c0 -5 5 -10 11 -10 5 0 7 5 4 10 -3 6 -8 10 -11 10 -2 0
-4 -4 -4 -10z"/>
<path d="M3736 3828 c10 -14 21 -24 23 -22 3 3 -6 15 -18 27 l-24 22 19 -27z"/>
<path d="M3621 3808 c3 -27 -1 -39 -13 -32 -7 5 -8 3 -4 -5 6 -9 13 -8 27 5
19 17 20 17 13 -1 -6 -14 -4 -17 8 -13 19 8 40 -33 32 -59 -5 -15 -4 -16 5 -3
9 12 13 9 23 -17 7 -18 16 -33 20 -33 13 0 39 -60 32 -73 -4 -7 -4 -9 1 -5 4
4 14 0 22 -10 30 -36 -71 147 -110 201 -41 55 -60 70 -56 45z"/>
<path d="M3931 3804 c0 -11 3 -14 6 -6 3 7 2 16 -1 19 -3 4 -6 -2 -5 -13z"/>
<path d="M3770 3791 c0 -5 5 -13 10 -16 6 -3 10 -2 10 4 0 5 -4 13 -10 16 -5
3 -10 2 -10 -4z"/>
<path d="M3923 3725 c0 -27 2 -38 4 -22 2 15 2 37 0 50 -2 12 -4 0 -4 -28z"/>
<path d="M3815 3720 c21 -24 26 -25 19 -6 -3 8 -13 17 -22 21 -13 5 -13 2 3
-15z"/>
<path d="M3681 3634 c0 -11 3 -14 6 -6 3 7 2 16 -1 19 -3 4 -6 -2 -5 -13z"/>
<path d="M3727 3617 c-3 -8 1 -14 8 -14 7 0 11 6 8 14 -3 7 -6 13 -8 13 -2 0
-5 -6 -8 -13z"/>
<path d="M3881 3625 c0 -5 6 -21 14 -35 8 -14 14 -20 14 -15 0 6 -6 21 -14 35
-8 14 -14 21 -14 15z"/>
<path d="M4221 3574 c0 -11 3 -14 6 -6 3 7 2 16 -1 19 -3 4 -6 -2 -5 -13z"/>
<path d="M3770 3541 c0 -6 4 -13 10 -16 6 -3 7 1 4 9 -7 18 -14 21 -14 7z"/>
<path d="M3806 3520 c8 -33 36 -92 40 -87 3 2 -7 28 -21 58 -14 30 -22 43 -19
29z"/>
<path d="M3950 3531 c0 -6 4 -13 10 -16 6 -3 7 1 4 9 -7 18 -14 21 -14 7z"/>
<path d="M3940 3501 c0 -6 4 -13 10 -16 6 -3 7 1 4 9 -7 18 -14 21 -14 7z"/>
<path d="M4115 3490 c-3 -6 1 -7 9 -4 18 7 21 14 7 14 -6 0 -13 -4 -16 -10z"/>
<path d="M4070 3479 c0 -5 5 -7 10 -4 6 3 10 8 10 11 0 2 -4 4 -10 4 -5 0 -10
-5 -10 -11z"/>
<path d="M3975 3459 c-4 -6 -5 -12 -2 -15 2 -3 7 2 10 11 7 17 1 20 -8 4z"/>
<path d="M4200 3425 c-14 -8 -20 -14 -14 -15 5 0 19 7 30 15 24 18 16 19 -16
0z"/>
<path d="M3850 3415 c0 -5 5 -17 10 -25 5 -8 10 -10 10 -5 0 6 -5 17 -10 25
-5 8 -10 11 -10 5z"/>
<path d="M3994 3402 c4 -3 14 -7 22 -8 9 -1 13 0 10 4 -4 3 -14 7 -22 8 -9 1
-13 0 -10 -4z"/>
<path d="M4030 3370 c0 -5 5 -10 11 -10 5 0 7 5 4 10 -3 6 -8 10 -11 10 -2 0
-4 -4 -4 -10z"/>
<path d="M3870 3347 c0 -14 5 -29 10 -32 7 -4 8 3 4 22 -9 38 -14 42 -14 10z"/>
<path d="M4605 3310 c9 -15 -27 -70 -46 -70 -20 0 -33 27 -17 36 7 4 8 3 4 -4
-4 -7 -1 -12 9 -12 11 0 15 5 11 16 -3 8 -2 12 3 9 10 -6 26 13 18 21 -13 13
-71 -32 -120 -94 -30 -37 -94 -105 -142 -150 -49 -45 -83 -82 -78 -82 17 0 93
29 163 61 67 31 125 90 115 117 -2 7 -1 10 5 7 9 -6 90 122 90 143 0 7 -5 12
-11 12 -5 0 -7 -4 -4 -10z m-64 -103 c-10 -9 -11 -8 -5 6 3 10 9 15 12 12 3
-3 0 -11 -7 -18z"/>
<path d="M3892 3275 c0 -11 3 -29 8 -40 11 -25 11 1 0 35 -6 20 -8 21 -8 5z"/>
<path d="M4860 3274 c0 -5 -13 -9 -29 -10 -35 -1 -124 -51 -115 -65 3 -5 0 -8
-7 -7 -6 2 -32 -22 -56 -52 -25 -30 -69 -81 -99 -113 -47 -52 -54 -64 -54
-100 0 -43 -38 -136 -68 -171 -16 -18 -16 -18 8 -11 67 20 137 95 275 295 32
47 81 118 108 157 28 40 47 76 44 80 -4 3 -7 2 -7 -3z m-10 -19 c0 -12 -66
-94 -79 -100 -11 -4 -11 -3 -2 9 10 11 10 20 1 36 -6 12 -9 24 -6 28 3 3 6 0
6 -6 0 -7 5 -12 10 -12 6 0 10 8 8 18 -2 10 3 17 14 17 9 0 20 4 24 8 9 8 24
9 24 2z"/>
<path d="M4795 3230 c3 -5 8 -10 11 -10 2 0 4 5 4 10 0 6 -5 10 -11 10 -5 0
-7 -4 -4 -10z"/>
<path d="M4785 3200 c-3 -5 -2 -10 4 -10 5 0 13 5 16 10 3 6 2 10 -4 10 -5 0
-13 -4 -16 -10z"/>
<path d="M4340 3253 c-52 -19 -81 -37 -76 -49 3 -8 0 -11 -8 -8 -7 3 -21 -8
-31 -23 -39 -60 -93 -117 -163 -174 -40 -32 -70 -59 -65 -59 4 0 43 9 86 19
86 20 111 38 191 141 32 41 42 60 35 71 -8 12 -10 12 -19 -1 -7 -11 -10 -11
-10 -2 0 7 7 15 15 18 8 4 15 12 15 19 0 22 28 39 44 26 10 -8 16 -8 25 2 18
22 -3 33 -39 20z m30 -13 c0 -5 -2 -10 -4 -10 -3 0 -8 5 -11 10 -3 6 -1 10 4
10 6 0 11 -4 11 -10z"/>
<path d="M4322 3205 c-14 -30 0 -41 22 -16 14 15 14 20 3 29 -11 9 -16 7 -25
-13z m9 -18 c-10 -9 -11 -8 -5 6 3 10 9 15 12 12 3 -3 0 -11 -7 -18z"/>
<path d="M3898 3159 c-2 -22 0 -43 4 -45 4 -3 8 15 8 40 0 57 -7 60 -12 5z"/>
<path d="M3690 3130 c0 -5 5 -10 10 -10 6 0 10 5 10 10 0 6 -4 10 -10 10 -5 0
-10 -4 -10 -10z"/>
<path d="M3886 3085 c-3 -8 -1 -15 4 -15 6 0 10 7 10 15 0 8 -2 15 -4 15 -2 0
-6 -7 -10 -15z"/>
<path d="M4362 2970 c-86 -44 -182 -66 -348 -80 -200 -16 -376 -55 -474 -105
-57 -29 -160 -123 -160 -146 1 -10 4 -9 11 4 6 9 15 15 20 12 5 -4 6 -11 3
-17 -5 -7 -2 -8 5 -3 9 5 10 10 2 18 -17 17 -13 27 7 21 13 -4 14 -4 4 4 -11
7 -7 14 16 30 16 12 32 19 35 16 3 -3 14 -1 23 4 13 7 25 7 37 0 18 -9 17 -11
-8 -24 -16 -8 -37 -12 -48 -8 -18 6 -17 4 3 -16 17 -17 24 -19 36 -9 31 26 23
-1 -11 -37 -44 -45 -115 -153 -149 -225 -38 -81 -86 -217 -86 -242 1 -20 3
-19 27 11 68 85 238 189 378 230 109 32 210 42 426 42 173 0 207 3 259 20 59
20 190 102 225 140 23 26 10 26 -22 0 -14 -11 -30 -20 -36 -20 -5 0 7 11 27
25 21 14 41 23 46 20 11 -7 159 133 197 185 l25 35 -35 -38 c-20 -21 -41 -36
-49 -35 -7 2 -13 -4 -13 -12 0 -22 -32 -51 -49 -44 -8 3 -17 1 -21 -5 -3 -7 0
-8 10 -5 11 5 14 2 9 -10 -3 -9 -12 -15 -19 -14 -8 2 -14 -1 -13 -6 0 -9 -22
-26 -34 -26 -5 0 -8 9 -8 20 0 14 -7 20 -22 20 -21 0 -21 0 -2 16 17 14 17 15
1 10 -10 -3 -21 -6 -23 -6 -2 0 -4 -6 -4 -14 0 -8 -4 -17 -9 -20 -5 -3 -8 5
-7 18 0 13 3 23 6 21 3 -2 14 3 25 11 15 11 16 17 7 26 -9 9 -18 6 -39 -14
-46 -42 -74 -55 -168 -77 -180 -41 -410 -56 -434 -27 -22 27 17 44 186 82 182
40 235 59 270 96 18 18 37 46 42 61 12 32 15 128 4 125 -5 0 -41 -18 -81 -38z
m-810 -202 c-9 -9 -7 -15 6 -25 15 -11 13 -12 -10 -2 -21 9 -31 9 -43 -1 -8
-7 -18 -10 -21 -7 -3 3 11 15 33 26 44 23 51 25 35 9z m943 -128 c3 -6 -1 -7
-9 -4 -18 7 -21 14 -7 14 6 0 13 -4 16 -10z"/>
<path d="M4920 2999 c0 -5 5 -7 10 -4 6 3 10 8 10 11 0 2 -4 4 -10 4 -5 0 -10
-5 -10 -11z"/>
<path d="M4830 2980 c-9 -6 -10 -10 -3 -10 6 0 15 5 18 10 8 12 4 12 -15 0z"/>
<path d="M4896 2953 c-6 -14 -5 -15 5 -6 7 7 10 15 7 18 -3 3 -9 -2 -12 -12z"/>
<path d="M4760 2940 c-14 -11 -20 -20 -14 -20 6 0 19 9 29 20 23 25 17 25 -15
0z"/>
<path d="M4650 2848 c-45 -42 -70 -71 -62 -75 6 -2 12 -12 12 -21 0 -13 3 -12
15 4 14 18 15 16 9 -18 -4 -24 -2 -38 4 -38 24 0 22 30 -3 94 -7 16 -4 18 26
12 28 -5 30 -4 12 4 -29 12 -30 24 -2 17 15 -4 19 -2 15 8 -3 8 -1 17 4 20 4
3 10 -1 13 -7 2 -7 8 -9 13 -5 5 4 2 12 -6 18 -13 8 -11 13 9 29 13 11 22 22
20 24 -2 2 -38 -27 -79 -66z m-30 -68 c0 -5 -4 -10 -10 -10 -5 0 -10 5 -10 10
0 6 5 10 10 10 6 0 10 -4 10 -10z"/>
<path d="M3291 2414 c0 -11 3 -14 6 -6 3 7 2 16 -1 19 -3 4 -6 -2 -5 -13z"/>
<path d="M3282 2360 c0 -14 2 -19 5 -12 2 6 2 18 0 25 -3 6 -5 1 -5 -13z"/>
</g>
</svg>
